HIERARCHY
ROOT Hips
{
    OFFSET 0.000000 0.000000 0.000000
    CHANNELS 6 Xposition Yposition Zposition Zrotation Yrotation Xrotation
    JOINT Chest
    {
        OFFSET 0.000000 1.634758 -0.000000
        CHANNELS 3 Zrotation Yrotation Xrotation
        JOINT Chest2
        {
            OFFSET 0.000000 2.197341 0.000000
            CHANNELS 3 Zrotation Yrotation Xrotation
            JOINT Neck
            {
                OFFSET 0.000000 0.961544 0.000000
                CHANNELS 3 Zrotation Yrotation Xrotation
                JOINT Head
                {
                    OFFSET 0.000000 0.632542 -0.032565
                    CHANNELS 3 Zrotation Yrotation Xrotation
                    End Site
                    {
                        OFFSET -0.000001 0.439502 2.922845
                    }
                }
            }
            JOINT LeftCollar
            {
                OFFSET 0.167536 0.778237 -0.168280
                CHANNELS 3 Zrotation Yrotation Xrotation
                JOINT LeftShoulder
                {
                    OFFSET 0.831514 -0.002900 0.006458
                    CHANNELS 3 Zrotation Yrotation Xrotation
                    JOINT LeftElbow
                    {
                        OFFSET 2.272872 -0.026639 0.059314
                        CHANNELS 3 Zrotation Yrotation Xrotation
                        JOINT LeftWrist
                        {
                            OFFSET 2.081982 -0.024402 0.054333
                            CHANNELS 3 Zrotation Yrotation Xrotation
                            JOINT LeftHandThumb1
                            {
                                OFFSET 0.218903 -0.128645 0.283837
                                CHANNELS 3 Zrotation Yrotation Xrotation
                                JOINT LeftHandThumb2
                                {
                                    OFFSET 0.137157 -0.025101 0.077902
                                    CHANNELS 3 Zrotation Yrotation Xrotation
                                    JOINT LeftHandThumb3
                                    {
                                        OFFSET 0.124714 -0.021351 0.132400
                                        CHANNELS 3 Zrotation Yrotation Xrotation
                                        End Site
                                        {
                                            OFFSET 0.029349 0.109462 0.242885
                                        }
                                    }
                                }
                            }
                            JOINT LeftHandFore1
                            {
                                OFFSET 0.767340 -0.016076 0.196678
                                CHANNELS 3 Zrotation Yrotation Xrotation
                                JOINT LeftHandFore2
                                {
                                    OFFSET 0.216526 -0.002420 0.010306
                                    CHANNELS 3 Zrotation Yrotation Xrotation
                                    JOINT LeftHandFore3
                                    {
                                        OFFSET 0.123703 0.037946 0.004548
                                        CHANNELS 3 Zrotation Yrotation Xrotation
                                        End Site
                                        {
                                            OFFSET 0.163691 0.102821 0.000195
                                        }
                                    }
                                }
                            }
                            JOINT LeftHandMiddle1
                            {
                                OFFSET 0.709887 -0.008320 0.018526
                                CHANNELS 3 Zrotation Yrotation Xrotation
                                JOINT LeftHandMiddle2
                                {
                                    OFFSET 0.174582 -0.171847 0.007303
                                    CHANNELS 3 Zrotation Yrotation Xrotation
                                    JOINT LeftHandMiddle3
                                    {
                                        OFFSET 0.056423 -0.134854 0.003732
                                        CHANNELS 3 Zrotation Yrotation Xrotation
                                        End Site
                                        {
                                            OFFSET -0.052393 -0.229961 0.001711
                                        }
                                    }
                                }
                            }
                            JOINT LeftHandRing1
                            {
                                OFFSET 0.743817 -0.005823 -0.153668
                                CHANNELS 3 Zrotation Yrotation Xrotation
                                JOINT LeftHandRing2
                                {
                                    OFFSET 0.235599 -0.262789 -0.012995
                                    CHANNELS 3 Zrotation Yrotation Xrotation
                                    JOINT LeftHandRing3
                                    {
                                        OFFSET -0.001519 -0.136382 -0.001788
                                        CHANNELS 3 Zrotation Yrotation Xrotation
                                        End Site
                                        {
                                            OFFSET -0.079854 -0.089649 -0.002472
                                        }
                                    }
                                }
                            }
                            JOINT LeftHandLittle1
                            {
                                OFFSET 0.689408 -0.053302 -0.308304
                                CHANNELS 3 Zrotation Yrotation Xrotation
                                JOINT LeftHandLittle2
                                {
                                    OFFSET 0.192983 0.019922 -0.020365
                                    CHANNELS 3 Zrotation Yrotation Xrotation
                                    JOINT LeftHandLittle3
                                    {
                                        OFFSET 0.115606 0.030922 -0.013242
                                        CHANNELS 3 Zrotation Yrotation Xrotation
                                        End Site
                                        {
                                            OFFSET 0.157197 0.106502 -0.015336
                                        }
                                    }
                                }
                            }
                        }
                    }
                }
            }
            JOINT RightCollar
            {
                OFFSET -0.167536 0.778237 -0.168280
                CHANNELS 3 Zrotation Yrotation Xrotation
                JOINT RightShoulder
                {
                    OFFSET -0.831514 -0.002900 0.006457
                    CHANNELS 3 Zrotation Yrotation Xrotation
                    JOINT RightElbow
                    {
                        OFFSET -2.272872 -0.026639 0.059313
                        CHANNELS 3 Zrotation Yrotation Xrotation
                        JOINT RightWrist
                        {
                            OFFSET -2.081982 -0.024402 0.054331
                            CHANNELS 3 Zrotation Yrotation Xrotation
                            JOINT RightHandThumb1
                            {
                                OFFSET -0.218911 -0.128571 0.283837
                                CHANNELS 3 Zrotation Yrotation Xrotation
                                JOINT RightHandThumb2
                                {
                                    OFFSET -0.137157 -0.025101 0.077902
                                    CHANNELS 3 Zrotation Yrotation Xrotation
                                    JOINT RightHandThumb3
                                    {
                                        OFFSET -0.149124 -0.106262 -0.003101
                                        CHANNELS 3 Zrotation Yrotation Xrotation
                                        End Site
                                        {
                                            OFFSET -0.223897 -0.132385 0.064656
                                        }
                                    }
                                }
                            }
                            JOINT RightHandFore1
                            {
                                OFFSET -0.767344 -0.015991 0.196679
                                CHANNELS 3 Zrotation Yrotation Xrotation
                                JOINT RightHandFore2
                                {
                                    OFFSET -0.089917 -0.196879 0.012250
                                    CHANNELS 3 Zrotation Yrotation Xrotation
                                    JOINT RightHandFore3
                                    {
                                        OFFSET 0.028427 -0.126305 0.001027
                                        CHANNELS 3 Zrotation Yrotation Xrotation
                                        End Site
                                        {
                                            OFFSET 0.118080 -0.153043 -0.001353
                                        }
                                    }
                                }
                            }
                            JOINT RightHandMiddle1
                            {
                                OFFSET -0.709887 -0.008302 0.018525
                                CHANNELS 3 Zrotation Yrotation Xrotation
                                JOINT RightHandMiddle2
                                {
                                    OFFSET -0.156536 -0.188440 0.006963
                                    CHANNELS 3 Zrotation Yrotation Xrotation
                                    JOINT RightHandMiddle3
                                    {
                                        OFFSET 0.012044 -0.145718 -0.002363
                                        CHANNELS 3 Zrotation Yrotation Xrotation
                                        End Site
                                        {
                                            OFFSET 0.169484 -0.163728 -0.009933
                                        }
                                    }
                                }
                            }
                            JOINT RightHandRing1
                            {
                                OFFSET -0.743819 -0.005785 -0.153669
                                CHANNELS 3 Zrotation Yrotation Xrotation
                                JOINT RightHandRing2
                                {
                                    OFFSET -0.213973 -0.280618 -0.014227
                                    CHANNELS 3 Zrotation Yrotation Xrotation
                                    JOINT RightHandRing3
                                    {
                                        OFFSET 0.032259 -0.131516 -0.016368
                                        CHANNELS 3 Zrotation Yrotation Xrotation
                                        End Site
                                        {
                                            OFFSET 0.116450 -0.028674 -0.006111
                                        }
                                    }
                                }
                            }
                            JOINT RightHandLittle1
                            {
                                OFFSET -0.689403 -0.053298 -0.308303
                                CHANNELS 3 Zrotation Yrotation Xrotation
                                JOINT RightHandLittle2
                                {
                                    OFFSET -0.130629 -0.144134 -0.014728
                                    CHANNELS 3 Zrotation Yrotation Xrotation
                                    JOINT RightHandLittle3
                                    {
                                        OFFSET -0.010253 -0.119717 -0.007640
                                        CHANNELS 3 Zrotation Yrotation Xrotation
                                        End Site
                                        {
                                            OFFSET 0.073248 -0.175348 -0.013274
                                        }
                                    }
                                }
                            }
                        }
                    }
                }
            }
        }
    }
    JOINT LeftHip
    {
        OFFSET 0.685143 0.673822 -0.044491
        CHANNELS 3 Zrotation Yrotation Xrotation
        JOINT LeftKnee
        {
            OFFSET 0.085364 -3.750208 0.017676
            CHANNELS 3 Zrotation Yrotation Xrotation
            JOINT LeftAnkle
            {
                OFFSET 0.094583 -4.155206 0.019585
                CHANNELS 3 Zrotation Yrotation Xrotation
                JOINT LeftToe
                {
                    OFFSET -0.000000 -0.395925 0.621478
                    CHANNELS 3 Zrotation Yrotation Xrotation
                    End Site
                    {
                        OFFSET -0.000000 -0.077878 0.321152
                    }
                }
            }
        }
    }
    JOINT RightHip
    {
        OFFSET -0.685143 0.673822 -0.044492
        CHANNELS 3 Zrotation Yrotation Xrotation
        JOINT RightKnee
        {
            OFFSET -0.085364 -3.750208 0.017677
            CHANNELS 3 Zrotation Yrotation Xrotation
            JOINT RightAnkle
            {
                OFFSET -0.094583 -4.155206 0.019585
                CHANNELS 3 Zrotation Yrotation Xrotation
                JOINT RightToe
                {
                    OFFSET -0.000000 -0.395925 0.621478
                    CHANNELS 3 Zrotation Yrotation Xrotation
                    End Site
                    {
                        OFFSET -0.000000 -0.077878 0.321152
                    }
                }
            }
        }
    }
}
MOTION
Frames: 6
Frame Time: 0.033333
5.621073 8.490231 -6.502029 -156.733032 -2.737782 173.756470 9.581390 16.444738 7.944961 4.330675 -3.104467 0.196027 -24.764641 -5.389179 -0.473834 0.833938 -15.785832 3.686512 -2.361624 3.377600 -0.126237 -7.927562 0.553046 -0.245493 -0.000002 -0.000000 0.000000 80.908928 -4.786884 4.279499 -0.000004 -0.000000 -0.000007 -6.481863 32.308914 11.748258 0.682758 27.759943 18.607380 0.000009 -0.000019 -0.000005 -13.160458 -0.347278 0.627766 -8.007488 -0.207269 0.439537 57.370392 10.705361 3.560871 34.905205 1.379563 -0.809323 42.918781 1.603619 -0.984929 60.281147 3.852458 -4.456388 53.270702 -1.418822 -1.094059 42.969654 0.304987 -0.225017 8.587355 0.336021 -0.067692 -9.734701 -0.281253 -0.150138 -0.571272 -0.033217 -0.028437 -3.488576 13.440629 -0.227542 13.855602 38.862255 -26.953003 -172.778961 84.135620 -173.488342 23.996187 -28.834143 -111.081383 0.000007 -0.000016 0.000009 0.000000 -0.000004 0.000002 0.000009 0.000002 0.000002 -0.000003 -0.000003 -0.000015 0.000005 -0.000001 0.000001 -0.000009 -0.000002 0.000000 -0.000002 -0.000005 -0.000015 -0.000003 0.000002 -0.000003 0.000002 -0.000002 -0.000002 -4.567891 -0.144592 -0.348740 -13.405058 1.182555 -0.604400 -32.178345 3.457889 -2.336809 -11.525530 -10.387051 7.750439 -23.459028 3.710162 0.736101 -17.355522 1.860507 0.575043 14.509759 1.286336 26.135414 0.060031 0.391097 17.450495 -3.594177 -8.584457 -13.656977 0.000000 0.000012 -0.000005 31.849428 -10.189033 7.959672 -0.064919 -0.406371 18.155167 -3.434547 -11.650197 -14.107344 -0.000000 -0.000002 -0.000001
5.610696 8.484827 -6.425835 -157.193497 -2.792680 173.940598 9.057280 16.586575 7.677948 4.816115 -3.183483 0.150304 -25.693729 -5.004469 -0.536072 0.795034 -15.083943 3.733043 -2.155967 3.619489 -0.117649 -7.172073 1.077734 -0.403089 0.000001 -0.000000 -0.000000 84.653000 -1.949230 4.340104 -0.000015 0.000007 -0.000003 -6.481866 32.308914 11.748260 0.682763 27.759945 18.607380 0.000007 -0.000016 -0.000014 -13.160460 -0.347282 0.627770 -8.007484 -0.207270 0.439533 57.370388 10.705356 3.560877 34.905205 1.379563 -0.809323 42.918785 1.603620 -0.984929 60.281132 3.852458 -4.456388 53.270699 -1.418827 -1.094061 42.969654 0.304988 -0.225016 8.587342 0.336021 -0.067692 -9.734702 -0.281249 -0.150133 -0.571272 -0.033219 -0.028441 -3.393988 13.497985 -0.227141 18.248585 40.075581 -27.023962 -173.246597 83.684814 -173.958664 15.593040 -18.390591 -94.317261 0.000005 -0.000006 -0.000009 0.000007 -0.000006 0.000000 0.000003 0.000000 0.000006 -0.000014 0.000003 -0.000016 0.000000 0.000000 0.000002 -0.000003 -0.000002 -0.000001 0.000000 0.000000 -0.000012 -0.000002 0.000002 -0.000003 0.000000 -0.000001 0.000000 -6.244760 -0.200070 -0.476608 -18.331436 1.590499 -0.875078 -44.042591 4.442689 -3.662496 -16.260151 -14.117944 10.761687 -32.071739 5.108880 0.825911 -23.720953 2.632069 0.688304 12.145447 -2.504890 24.659639 0.075087 0.436108 19.535812 -3.754387 -9.231995 -12.807583 0.000001 0.000006 -0.000003 31.958811 -8.201391 6.648257 -0.073342 -0.431215 19.307766 -3.893664 -13.695695 -14.367376 0.000002 0.000008 0.000008
5.598950 8.478939 -6.351615 -157.706253 -2.847094 174.145615 8.465506 16.735477 7.374747 5.310919 -3.262793 0.090813 -26.036142 -4.581883 -0.643634 0.754145 -14.340882 3.643419 -1.320222 3.541289 -0.073921 -4.524630 0.543256 -0.586562 0.000002 -0.000000 0.000000 91.210472 -2.859182 0.178451 0.000000 -0.000003 0.000007 -6.481864 32.308914 11.748263 0.682756 27.759943 18.607376 -3.012629 -0.067945 0.116687 -13.160461 -0.347281 0.627766 -8.007486 -0.207269 0.439532 53.811676 10.517653 3.049299 34.905205 1.379563 -0.809324 42.918785 1.603619 -0.984929 56.691586 3.535358 -4.261363 53.270695 -1.418829 -1.094060 42.969658 0.304989 -0.225016 8.587365 0.336026 -0.067687 -9.734702 -0.281251 -0.150136 -0.571276 -0.033221 -0.028436 -3.280314 13.433644 -0.224980 22.048128 40.629005 -26.649069 -174.487671 82.061775 -175.209396 10.556997 -8.369034 -82.937653 0.000003 -0.000003 -0.000009 0.000003 -0.000001 -0.000001 0.000002 -0.000000 0.000008 0.000009 0.000009 -0.000023 -0.000002 0.000002 -0.000000 -0.000007 0.000003 -0.000002 -0.000009 0.000007 -0.000021 0.000002 -0.000004 0.000000 -0.000003 -0.000001 0.000002 -7.707382 -0.249503 -0.588045 -22.631180 1.932087 -1.130965 -54.417610 5.116914 -4.977812 -20.628044 -17.311174 13.507171 -39.592117 6.326347 0.822708 -29.272532 3.336124 0.738146 9.626185 -6.455357 23.693521 0.086758 0.467694 21.015261 -3.891454 -9.721081 -11.660825 -0.000003 -0.000017 0.000002 31.923721 -6.330139 5.473995 -0.080649 -0.451534 20.256397 -4.349211 -15.550891 -14.534205 -0.000002 -0.000009 0.000005
5.585943 8.472662 -6.281334 -158.266357 -2.900836 174.369598 7.814069 16.887463 7.036219 5.802137 -3.339596 0.014940 -23.365705 -3.957735 -0.951258 0.700962 -13.367094 2.879498 0.282665 3.290374 0.016279 0.677758 3.164110 -0.754518 0.005884 -7.874663 -0.092832 78.265228 -0.076929 8.945304 -0.000017 0.000001 0.000000 -6.481864 32.308914 11.748262 0.682756 27.759945 18.607378 -10.783238 -0.224135 0.416273 -13.160458 -0.347280 0.627765 -8.007490 -0.207270 0.439535 44.629257 10.048303 1.751453 34.905212 1.379565 -0.809324 42.918777 1.603622 -0.984930 47.431110 2.732920 -3.736430 53.270699 -1.418830 -1.094059 42.969658 0.304987 -0.225017 8.587353 0.336020 -0.067695 -9.734703 -0.281251 -0.150135 -0.571274 -0.033220 -0.028439 -3.150729 13.278989 -0.221218 25.461491 40.712337 -25.939638 -175.621124 79.615852 -176.357407 5.256153 -4.080881 -73.549461 -0.000003 -0.000002 -0.000019 0.000000 -0.000000 0.000000 0.000005 0.000002 0.000006 -0.000002 -0.000002 -0.000015 0.000002 0.000001 -0.000002 -0.000003 0.000003 -0.000002 -0.000003 -0.000000 -0.000014 -0.000002 0.000002 -0.000001 -0.000002 0.000002 -0.000002 -8.741854 -0.285068 -0.666769 -25.673889 2.164891 -1.322497 -61.768864 5.475792 -5.978671 -23.858810 -19.526630 15.530787 -44.917873 7.180255 0.774792 -33.199390 3.848945 0.744348 7.047228 -10.359920 23.205585 0.094592 0.487599 21.955103 -3.971385 -10.049687 -10.403581 0.000001 0.000003 -0.000003 31.725266 -4.694673 4.444714 -0.086629 -0.467415 21.001934 -4.789217 -17.084621 -14.634186 0.000000 0.000001 0.000000
5.571789 8.466091 -6.216970 -158.868851 -2.953762 174.610504 7.111039 17.038069 6.663202 6.276955 -3.411022 -0.079978 -16.982008 -2.686231 -1.257671 0.589608 -11.303246 1.705930 1.807128 2.954473 0.106159 5.781381 8.313077 -0.900827 0.049652 -21.679504 -0.266639 60.809853 3.580504 14.356111 -0.000009 0.000004 -0.000003 -6.481867 32.308914 11.748257 0.682754 27.759943 18.607380 -21.409374 -0.394121 0.817235 -13.160460 -0.347281 0.627765 -8.007491 -0.207273 0.439532 32.062714 9.447069 0.021408 34.905205 1.379562 -0.809325 42.918793 1.603619 -0.984930 34.761299 1.678874 -2.973252 53.270691 -1.418827 -1.094061 42.969658 0.304990 -0.225015 8.587350 0.336024 -0.067688 -9.734701 -0.281251 -0.150131 -0.571277 -0.033221 -0.028443 -3.008502 13.065482 -0.215938 29.380999 40.749485 -25.042408 -176.425339 76.695618 -177.179031 -2.822721 -12.367942 -64.233955 0.000003 -0.000007 -0.000009 0.000007 -0.000006 0.000003 0.000003 -0.000001 0.000003 0.000002 -0.000000 -0.000026 0.000000 -0.000001 -0.000002 -0.000002 -0.000000 -0.000002 -0.000012 -0.000003 -0.000024 0.000002 0.000002 -0.000002 -0.000002 -0.000000 0.000000 -9.134191 -0.298682 -0.696619 -26.828239 2.251173 -1.397332 -64.559341 5.584644 -6.370407 -25.116095 -20.356125 16.318298 -46.939522 7.501703 0.746834 -34.688911 4.046253 0.740203 4.505718 -14.010260 23.157097 0.098182 0.496407 22.372993 -3.978399 -10.219624 -9.156775 -0.000002 -0.000014 -0.000005 31.350422 -3.416084 3.566819 -0.091099 -0.478899 21.543373 -5.198132 -18.167847 -14.701527 0.000003 0.000010 0.000001
5.556600 8.459320 -6.160483 -159.508789 -3.005729 174.866409 6.364397 17.182415 6.256457 6.722660 -3.474247 -0.195973 -9.275786 -0.936683 -1.110858 0.430221 -8.297965 1.177545 2.588595 2.673808 0.155011 5.057095 9.684627 -14.536396 0.086110 -27.862919 -0.354472 41.100166 5.063826 31.373802 -0.000008 0.000009 -0.000009 -6.481865 32.308914 11.748260 0.682756 27.759943 18.607378 -32.989262 -0.524947 1.232960 -13.160460 -0.347283 0.627766 -8.007487 -0.207268 0.439533 18.351749 8.854424 -1.817854 34.905205 1.379563 -0.809323 42.918777 1.603619 -0.984928 20.942682 0.598452 -2.094654 53.270702 -1.418830 -1.094066 42.969654 0.304988 -0.225014 8.587358 0.336028 -0.067693 -9.734703 -0.281252 -0.150135 -0.571274 -0.033220 -0.028441 -2.856797 12.824714 -0.209365 33.397053 40.668240 -23.967287 -176.958282 73.629303 -177.730392 -11.905233 -16.537180 -53.311043 0.000003 -0.000012 -0.000005 0.000000 -0.000008 0.000003 0.000010 -0.000001 0.000000 0.000002 -0.000002 -0.000015 -0.000003 -0.000001 -0.000003 -0.000002 -0.000003 0.000003 -0.000010 -0.000008 -0.000017 -0.000009 0.000002 0.000000 0.000000 -0.000003 0.000000 -9.134188 -0.298685 -0.696617 -26.828241 2.251169 -1.397330 -64.559341 5.584642 -6.370411 -25.116085 -20.356125 16.318298 -46.939526 7.501703 0.746835 -34.688911 4.046251 0.740204 2.110807 -17.200174 23.494499 0.097138 0.493868 22.252394 -3.923614 -10.243345 -7.990641 -0.000004 -0.000015 0.000005 30.809917 -2.538235 2.848002 -0.093918 -0.485977 21.878117 -5.543082 -18.752506 -14.769227 -0.000000 -0.000002 0.000008
